<svg width="18" height="18" viewBox="0 0 18 18" fill="none" xmlns="http://www.w3.org/2000/svg"><g clip-path="url(#clip0_1424_447)" opacity=".5"><path d="M16.818 2.52a.588.588 0 00-.425-.486L9.158.022a.588.588 0 00-.315 0L1.608 2.034a.588.588 0 00-.425.485C1.141 2.821.184 9.95 2.64 13.497c2.453 3.542 6.07 4.45 6.223 4.487a.586.586 0 00.277 0c.152-.037 3.77-.945 6.223-4.487C17.816 9.95 16.86 2.82 16.817 2.519zm-3.152 4.16L8.73 11.616a.587.587 0 01-.832 0L4.85 8.565a.588.588 0 010-.832l.605-.606c.23-.23.602-.23.832 0l2.03 2.03 3.912-3.913a.588.588 0 01.832 0l.606.605c.23.23.23.603 0 .832z" fill="#232831"/></g><defs><clipPath id="clip0_1424_447"><path fill="#fff" d="M0 0h18v18H0z"/></clipPath></defs></svg>