<svg width="25" height="17" viewBox="0 0 25 17" fill="none" xmlns="http://www.w3.org/2000/svg"><path d="M22.803 3.396h-7.12l-2.32-2.319A3.668 3.668 0 008.478.803L3.204 5.02a.736.736 0 00-.275.573v8.789c0 .297.18.564.454.677l.254.105a19.586 19.586 0 007.35 1.415h2.929a2.2 2.2 0 002.043-3.007 2.2 2.2 0 001.465-2.93c.414-.112.78-.344 1.058-.655a2.187 2.187 0 00.435-2.197h3.886A2.2 2.2 0 0025 5.594a2.2 2.2 0 00-2.197-2.198z" fill="#FEC478"/><path d="M17.424 10.644a2.2 2.2 0 01-1.465 2.93 2.2 2.2 0 01-2.043 3.007h-2.93a19.59 19.59 0 01-7.349-1.416l-.254-.105a.732.732 0 01-.454-.677V9.988h15.553a2.191 2.191 0 01-1.058.656z" fill="#FEB756"/><path d="M2.197 16.58H.732A.732.732 0 010 15.848V4.128c0-.404.328-.732.732-.732h1.465a2.2 2.2 0 012.198 2.198v8.789a2.2 2.2 0 01-2.198 2.197z" fill="#FD003A"/><path d="M0 9.988v5.86c0 .405.328.732.732.732h1.465a2.2 2.2 0 002.198-2.197V9.988H0z" fill="#E50027"/></svg>