<svg width="84" height="66" viewBox="0 0 84 66" fill="none" xmlns="http://www.w3.org/2000/svg"><path d="M35.572 46.327V19.673h11.76c3.16 0 5.479.846 6.996 2.496 1.517 1.65 2.276 3.68 2.276 6.092a8.469 8.469 0 01-.548 3.047 8.073 8.073 0 01-1.602 2.707c-.716.846-1.685 1.523-2.908 2.03-1.222.509-2.655.762-4.215.762h-5.985v9.562h-5.774v-.042zm11.97-15.02c1.012 0 1.77-.296 2.276-.93.506-.593.759-1.312.759-2.158 0-.804-.253-1.523-.717-2.158-.463-.634-1.264-.93-2.318-.93h-6.196v6.177h6.196zm29.714 15.02l-6.49-12.1-5.058 6.304v5.796h-5.774V19.673h5.774V32.28l9.947-12.608h6.954l-7.924 9.688L84 46.327h-6.744z" fill="#0943B5"/><path d="M59.85 52.038v8.039H5.9V5.923h53.95v8.038h5.9V0H0v66h65.75V52.038h-5.9z" fill="#7B7B7B" opacity=".8"/></svg>